<?xml version="1.0" encoding="UTF-8" standalone="no"?>
<svg width="600px" height="472px" viewBox="0 0 600 472" version="1.1" xmlns="http://www.w3.org/2000/svg" xmlns:xlink="http://www.w3.org/1999/xlink" xmlns:sketch="http://www.bohemiancoding.com/sketch/ns">
    <!-- Generator: Sketch 3.2.2 (9983) - http://www.bohemiancoding.com/sketch -->
    <title>logo-with-text</title>
    <desc>Created with Sketch.</desc>
    <defs></defs>
    <g id="Exportables" stroke="none" stroke-width="1" fill="none" fill-rule="evenodd" sketch:type="MSPage">
        <g id="logo-with-text" sketch:type="MSArtboardGroup" fill="#FFFFFF">
            <path d="M133.616918,267.587324 L0,133.793662 L133.616918,0 L178.15547,44.5974669 L89.078365,133.793662 L178.15547,222.989857 L133.616918,267.587324 Z M267.233835,401.380986 L178.15547,312.184791 L222.695283,267.587324 L267.233835,312.184791 L445.389306,133.793662 L400.850753,89.1961952 L445.389306,44.5974669 L534.467671,133.793662 L267.233835,401.380986 Z M267.233835,267.587324 L244.963929,245.28796 L267.233835,222.989857 L240.351975,196.072438 L240.351975,160.711081 L205.037331,160.711081 L178.15547,133.793662 L155.886824,156.093026 L133.616918,133.793662 L178.15547,89.1961952 L218.083328,129.175607 L271.845789,129.175607 L271.845789,183.010445 L311.772388,222.989857 L267.233835,267.587324 Z M334.042294,200.690493 L311.772388,178.391129 L330.221465,159.91891 L330.221465,107.668414 L293.324571,70.7227147 L241.143099,70.7227147 L222.695283,89.1961952 L200.425376,66.8968311 L228.098361,39.187241 L306.369309,39.187241 L361.715279,94.6064211 L361.715279,172.980903 L334.042294,200.690493 Z M328.401122,399.121785 C335.981053,398.784986 343.001654,401.847711 349.452847,408.307438 C355.90656,414.769687 359.083656,421.817235 358.984136,429.448819 C358.885875,437.080404 354.877342,444.859575 346.958537,452.787593 L332.766165,467 L291.256057,425.434984 L305.923357,410.747022 C313.326923,403.333663 320.818671,399.458584 328.401122,399.121785 Z M346.275751,430.637076 C346.414324,426.217064 344.445331,421.966082 340.366252,417.882869 C336.289693,413.799656 332.014092,411.797784 327.539451,411.877253 C323.06607,411.955461 318.473012,414.35468 313.762797,419.072387 L308.596552,424.245466 L333.834435,449.516733 L339.7137,443.629691 C343.948988,439.388801 346.137179,435.058349 346.275751,430.637076 Z M369.821787,346.764069 L378.075686,355.030147 L357.410705,375.722464 L365.961905,384.284975 L384.549554,365.674 L392.448203,373.583097 L373.860554,392.194072 L382.470963,400.815871 L403.791015,379.468878 L411.985706,387.674408 L381.402693,418.299137 L339.891325,376.734122 L369.821787,346.764069 Z M434.077987,349.141843 C438.629473,344.583075 440.550596,339.053015 439.837576,332.551661 L451.893408,332.729522 C452.486752,342.760325 449.585541,350.975947 443.193557,357.377648 C436.799053,363.78061 429.513903,367.032548 421.338109,367.130939 C413.163575,367.230591 405.998102,364.196879 399.841691,358.032324 C393.68528,351.86777 390.656835,344.613349 390.755096,336.267802 C390.853356,327.923515 393.951088,320.699369 400.04955,314.59284 C406.858513,307.77487 415.152724,304.664211 424.932183,305.257078 L425.704412,317.567266 C419.132282,316.854564 413.668735,318.677314 409.313771,323.03804 C405.829295,326.527125 403.987537,330.649442 403.791015,335.406253 C403.591975,340.164325 405.423655,344.474593 409.283537,348.339581 C413.144678,352.204569 417.410201,354.138324 422.081363,354.137062 C426.752526,354.138324 430.750981,352.471989 434.077987,349.141843 Z M497.946183,290.123835 C497.847923,298.429017 494.730035,305.654425 488.59378,311.798797 C482.456266,317.94443 475.241663,321.065181 466.947452,321.163571 C458.653241,321.263223 451.457534,318.261046 445.360331,312.155778 C439.264388,306.051772 436.264918,298.845286 436.363178,290.540103 C436.461439,282.234921 439.579327,275.010775 445.716841,268.865142 C451.853096,262.72077 459.067699,259.598758 467.36317,259.500367 C475.656121,259.401977 482.854347,262.404154 488.95029,268.50816 C495.047493,274.614689 498.044444,281.819914 497.946183,290.123835 Z M479.536159,277.992769 C475.835006,274.28672 471.490119,272.315122 466.501499,272.076714 C461.512879,271.838306 457.286409,273.454184 453.823349,276.923086 C450.35777,280.391988 448.745286,284.624049 448.98338,289.618006 C449.220213,294.614487 451.190466,298.965121 454.891619,302.671169 C458.595292,306.37848 462.928841,308.341248 467.897305,308.55695 C472.865769,308.776437 477.082161,307.150468 480.546481,303.681566 C484.0108,300.213925 485.634621,295.990695 485.415424,291.015658 C485.198747,286.041883 483.239832,281.701341 479.536159,277.992769 Z M516.415416,210.858791 C523.995347,210.521992 531.014689,213.585979 537.465882,220.045706 C543.919594,226.507955 547.09795,233.554241 546.99843,241.185826 C546.900169,248.81741 542.890376,256.597842 534.972831,264.52586 L520.779199,278.738268 L479.269092,237.171991 L493.937651,222.484028 C501.339957,215.071931 508.832965,211.19559 516.415416,210.858791 Z M534.288786,242.375344 C534.428618,237.955332 532.459625,233.703088 528.380546,229.619875 C524.303987,225.536662 520.027127,223.53479 515.553745,223.61426 C511.079104,223.693729 506.487306,226.091687 501.777091,230.809393 L496.609586,235.983734 L521.847469,261.255001 L527.726734,255.367959 C531.963282,251.125807 534.150213,246.795356 534.288786,242.375344 Z M557.836081,158.501075 L566.08998,166.767153 L545.424999,187.460731 L553.976199,196.023243 L572.563848,177.411006 L580.462497,185.320103 L561.874848,203.93234 L570.485257,212.554138 L591.80405,191.205884 L600,199.412676 L569.415727,230.036144 L527.905619,188.471128 L557.836081,158.501075 Z" id="Fill-1" sketch:type="MSShapeGroup"></path>
        </g>
    </g>
</svg>
